<mxfile host="Electron" modified="2024-03-16T11:21:32.983Z" agent="Mozilla/5.0 (Macintosh; Intel Mac OS X 10_15_7) AppleWebKit/537.36 (KHTML, like Gecko) draw.io/24.0.4 Chrome/120.0.6099.109 Electron/28.1.0 Safari/537.36" etag="W-oU4cOfjgdXwzryhyS_" version="24.0.4" type="device">
  <diagram name="Page-1" id="rsx9GXTSGTZzH6Fpckrr">
    <mxGraphModel dx="378" dy="321" grid="1" gridSize="10" guides="1" tooltips="1" connect="1" arrows="1" fold="1" page="1" pageScale="1" pageWidth="827" pageHeight="1169" math="0" shadow="0">
      <root>
        <mxCell id="0" />
        <mxCell id="1" parent="0" />
        <mxCell id="IatQDoGB5REz5REVIrck-5" value="" style="rounded=1;whiteSpace=wrap;html=1;fillColor=#eeeeee;strokeColor=#7EA6E0;" vertex="1" parent="1">
          <mxGeometry x="320" y="440" width="120" height="120" as="geometry" />
        </mxCell>
        <mxCell id="IatQDoGB5REz5REVIrck-39" style="edgeStyle=orthogonalEdgeStyle;rounded=0;orthogonalLoop=1;jettySize=auto;html=1;entryX=0;entryY=0.5;entryDx=0;entryDy=0;strokeColor=#7EA6E0;" edge="1" parent="1" source="IatQDoGB5REz5REVIrck-29" target="IatQDoGB5REz5REVIrck-38">
          <mxGeometry relative="1" as="geometry" />
        </mxCell>
        <mxCell id="IatQDoGB5REz5REVIrck-29" value="" style="rounded=1;whiteSpace=wrap;html=1;fillColor=#eeeeee;strokeColor=#7EA6E0;" vertex="1" parent="1">
          <mxGeometry x="720" y="240" width="120" height="120" as="geometry" />
        </mxCell>
        <mxCell id="IatQDoGB5REz5REVIrck-11" style="edgeStyle=orthogonalEdgeStyle;rounded=0;orthogonalLoop=1;jettySize=auto;html=1;strokeColor=#7EA6E0;" edge="1" parent="1" source="IatQDoGB5REz5REVIrck-10" target="IatQDoGB5REz5REVIrck-5">
          <mxGeometry relative="1" as="geometry" />
        </mxCell>
        <mxCell id="IatQDoGB5REz5REVIrck-10" value="" style="rounded=1;whiteSpace=wrap;html=1;fillColor=#eeeeee;strokeColor=#7EA6E0;" vertex="1" parent="1">
          <mxGeometry x="120" y="440" width="120" height="120" as="geometry" />
        </mxCell>
        <mxCell id="IatQDoGB5REz5REVIrck-7" style="edgeStyle=orthogonalEdgeStyle;rounded=0;orthogonalLoop=1;jettySize=auto;html=1;entryX=0;entryY=0.5;entryDx=0;entryDy=0;strokeColor=#7EA6E0;" edge="1" parent="1" source="IatQDoGB5REz5REVIrck-1" target="IatQDoGB5REz5REVIrck-3">
          <mxGeometry relative="1" as="geometry" />
        </mxCell>
        <mxCell id="IatQDoGB5REz5REVIrck-1" value="" style="rounded=1;whiteSpace=wrap;html=1;fillColor=#eeeeee;strokeColor=#7EA6E0;" vertex="1" parent="1">
          <mxGeometry x="120" y="240" width="120" height="120" as="geometry" />
        </mxCell>
        <mxCell id="IatQDoGB5REz5REVIrck-22" style="edgeStyle=orthogonalEdgeStyle;rounded=0;orthogonalLoop=1;jettySize=auto;html=1;strokeColor=#7EA6E0;" edge="1" parent="1" source="IatQDoGB5REz5REVIrck-3" target="IatQDoGB5REz5REVIrck-21">
          <mxGeometry relative="1" as="geometry" />
        </mxCell>
        <mxCell id="IatQDoGB5REz5REVIrck-3" value="" style="rounded=1;whiteSpace=wrap;html=1;fillColor=#eeeeee;strokeColor=#7EA6E0;" vertex="1" parent="1">
          <mxGeometry x="320" y="240" width="120" height="120" as="geometry" />
        </mxCell>
        <mxCell id="IatQDoGB5REz5REVIrck-4" value="" style="html=1;verticalLabelPosition=bottom;align=center;labelBackgroundColor=#ffffff;verticalAlign=top;strokeWidth=2;strokeColor=#7EA6E0;shadow=0;dashed=0;shape=mxgraph.ios7.icons.data;fillColor=none;" vertex="1" parent="1">
          <mxGeometry x="359" y="269" width="42" height="60" as="geometry" />
        </mxCell>
        <mxCell id="IatQDoGB5REz5REVIrck-6" style="edgeStyle=orthogonalEdgeStyle;rounded=0;orthogonalLoop=1;jettySize=auto;html=1;entryX=0.5;entryY=1;entryDx=0;entryDy=0;strokeColor=#7EA6E0;" edge="1" parent="1" source="IatQDoGB5REz5REVIrck-5" target="IatQDoGB5REz5REVIrck-3">
          <mxGeometry relative="1" as="geometry" />
        </mxCell>
        <mxCell id="IatQDoGB5REz5REVIrck-9" value="" style="verticalLabelPosition=bottom;html=1;verticalAlign=top;align=center;strokeColor=#7EA6E0;fillColor=#7EA6E0;shape=mxgraph.azure.website_generic;pointerEvents=1;" vertex="1" parent="1">
          <mxGeometry x="147.5" y="480" width="72.5" height="55" as="geometry" />
        </mxCell>
        <mxCell id="IatQDoGB5REz5REVIrck-13" style="edgeStyle=orthogonalEdgeStyle;rounded=0;orthogonalLoop=1;jettySize=auto;html=1;startArrow=classic;startFill=1;strokeColor=#7EA6E0;" edge="1" parent="1" source="IatQDoGB5REz5REVIrck-12" target="IatQDoGB5REz5REVIrck-3">
          <mxGeometry relative="1" as="geometry" />
        </mxCell>
        <mxCell id="IatQDoGB5REz5REVIrck-12" value="" style="rounded=1;whiteSpace=wrap;html=1;fillColor=#eeeeee;strokeColor=#7EA6E0;" vertex="1" parent="1">
          <mxGeometry x="320" y="40" width="120" height="120" as="geometry" />
        </mxCell>
        <mxCell id="IatQDoGB5REz5REVIrck-20" value="" style="group;strokeColor=none;container=0;" vertex="1" connectable="0" parent="1">
          <mxGeometry x="355" y="60" width="50" height="80" as="geometry" />
        </mxCell>
        <mxCell id="IatQDoGB5REz5REVIrck-30" style="edgeStyle=orthogonalEdgeStyle;rounded=0;orthogonalLoop=1;jettySize=auto;html=1;entryX=0;entryY=0.5;entryDx=0;entryDy=0;strokeColor=#7EA6E0;" edge="1" parent="1" source="IatQDoGB5REz5REVIrck-21" target="IatQDoGB5REz5REVIrck-29">
          <mxGeometry relative="1" as="geometry" />
        </mxCell>
        <mxCell id="IatQDoGB5REz5REVIrck-21" value="" style="rounded=1;whiteSpace=wrap;html=1;fillColor=#eeeeee;strokeColor=#7EA6E0;" vertex="1" parent="1">
          <mxGeometry x="520" y="240" width="120" height="120" as="geometry" />
        </mxCell>
        <mxCell id="IatQDoGB5REz5REVIrck-26" value="" style="sketch=0;outlineConnect=0;fontColor=#232F3E;gradientColor=none;fillColor=#7EA6E0;strokeColor=#7EA6E0;dashed=0;verticalLabelPosition=bottom;verticalAlign=top;align=center;html=1;fontSize=12;fontStyle=0;aspect=fixed;pointerEvents=1;shape=mxgraph.aws4.data_set;" vertex="1" parent="1">
          <mxGeometry x="555.37" y="269" width="49.27" height="61" as="geometry" />
        </mxCell>
        <mxCell id="IatQDoGB5REz5REVIrck-28" value="" style="image;aspect=fixed;perimeter=ellipsePerimeter;html=1;align=center;shadow=0;dashed=0;fontColor=#4277BB;labelBackgroundColor=default;fontSize=12;spacingTop=3;image=img/lib/ibm/miscellaneous/cognitive_services.svg;strokeColor=#7EA6E0;" vertex="1" parent="1">
          <mxGeometry x="750" y="270" width="60" height="60" as="geometry" />
        </mxCell>
        <mxCell id="IatQDoGB5REz5REVIrck-34" value="" style="group;strokeColor=none;" vertex="1" connectable="0" parent="1">
          <mxGeometry x="345" y="455" width="70" height="90" as="geometry" />
        </mxCell>
        <mxCell id="IatQDoGB5REz5REVIrck-32" value="" style="shape=card;whiteSpace=wrap;html=1;size=18;fillColor=#eeeeee;strokeColor=#7EA6E0;strokeWidth=2;" vertex="1" parent="IatQDoGB5REz5REVIrck-34">
          <mxGeometry x="20" y="20" width="50" height="70" as="geometry" />
        </mxCell>
        <mxCell id="IatQDoGB5REz5REVIrck-31" value="" style="shape=card;whiteSpace=wrap;html=1;size=18;fillColor=#eeeeee;strokeColor=#7EA6E0;strokeWidth=2;" vertex="1" parent="IatQDoGB5REz5REVIrck-34">
          <mxGeometry x="10" y="10" width="50" height="70" as="geometry" />
        </mxCell>
        <mxCell id="IatQDoGB5REz5REVIrck-33" value="" style="shape=card;whiteSpace=wrap;html=1;size=18;fillColor=#eeeeee;strokeColor=#7EA6E0;strokeWidth=2;" vertex="1" parent="IatQDoGB5REz5REVIrck-34">
          <mxGeometry width="50" height="70" as="geometry" />
        </mxCell>
        <mxCell id="IatQDoGB5REz5REVIrck-35" value="&lt;font color=&quot;#7ea6e0&quot; style=&quot;font-size: 14px;&quot;&gt;&lt;b&gt;_ _ _ ?&lt;/b&gt;&lt;/font&gt;" style="shape=callout;whiteSpace=wrap;html=1;perimeter=calloutPerimeter;position2=0.36;fillColor=none;strokeWidth=2;strokeColor=#7EA6E0;size=20;position=0.41;" vertex="1" parent="1">
          <mxGeometry x="140" y="269" width="75.62" height="71" as="geometry" />
        </mxCell>
        <mxCell id="IatQDoGB5REz5REVIrck-38" value="" style="rounded=1;whiteSpace=wrap;html=1;fillColor=#eeeeee;strokeColor=#7EA6E0;" vertex="1" parent="1">
          <mxGeometry x="920" y="240" width="120" height="120" as="geometry" />
        </mxCell>
        <mxCell id="IatQDoGB5REz5REVIrck-37" value="&lt;font color=&quot;#7ea6e0&quot; style=&quot;font-size: 14px;&quot;&gt;&lt;b&gt;_ _ _ _&lt;/b&gt;&lt;/font&gt;" style="shape=callout;whiteSpace=wrap;html=1;perimeter=calloutPerimeter;position2=0.36;fillColor=none;strokeWidth=2;strokeColor=#7EA6E0;size=20;position=0.41;" vertex="1" parent="1">
          <mxGeometry x="942.19" y="270" width="75.62" height="71" as="geometry" />
        </mxCell>
        <mxCell id="IatQDoGB5REz5REVIrck-14" value="" style="whiteSpace=wrap;html=1;aspect=fixed;fillColor=none;strokeWidth=2;strokeColor=#7EA6E0;container=0;" vertex="1" parent="1">
          <mxGeometry x="355" y="60" width="20" height="20" as="geometry" />
        </mxCell>
        <mxCell id="IatQDoGB5REz5REVIrck-15" value="" style="whiteSpace=wrap;html=1;aspect=fixed;fillColor=none;strokeWidth=2;strokeColor=#7EA6E0;container=0;" vertex="1" parent="1">
          <mxGeometry x="355" y="90" width="20" height="20" as="geometry" />
        </mxCell>
        <mxCell id="IatQDoGB5REz5REVIrck-16" value="" style="whiteSpace=wrap;html=1;aspect=fixed;fillColor=none;strokeWidth=2;strokeColor=#7EA6E0;container=0;" vertex="1" parent="1">
          <mxGeometry x="355" y="120" width="20" height="20" as="geometry" />
        </mxCell>
        <mxCell id="IatQDoGB5REz5REVIrck-17" value="" style="whiteSpace=wrap;html=1;aspect=fixed;fillColor=none;strokeWidth=2;strokeColor=#7EA6E0;container=0;" vertex="1" parent="1">
          <mxGeometry x="385" y="60" width="20" height="20" as="geometry" />
        </mxCell>
        <mxCell id="IatQDoGB5REz5REVIrck-18" value="" style="whiteSpace=wrap;html=1;aspect=fixed;fillColor=none;strokeWidth=2;strokeColor=#7EA6E0;container=0;" vertex="1" parent="1">
          <mxGeometry x="385" y="90" width="20" height="20" as="geometry" />
        </mxCell>
        <mxCell id="IatQDoGB5REz5REVIrck-19" value="" style="whiteSpace=wrap;html=1;aspect=fixed;fillColor=none;strokeWidth=2;strokeColor=#7EA6E0;container=0;" vertex="1" parent="1">
          <mxGeometry x="385" y="120" width="20" height="20" as="geometry" />
        </mxCell>
        <mxCell id="IatQDoGB5REz5REVIrck-40" value="&lt;font color=&quot;#7ea6e0&quot;&gt;question&lt;/font&gt;" style="text;html=1;align=center;verticalAlign=middle;whiteSpace=wrap;rounded=0;" vertex="1" parent="1">
          <mxGeometry x="180" y="360" width="60" height="30" as="geometry" />
        </mxCell>
        <mxCell id="IatQDoGB5REz5REVIrck-41" value="&lt;font color=&quot;#7ea6e0&quot;&gt;web site&lt;/font&gt;" style="text;html=1;align=center;verticalAlign=middle;whiteSpace=wrap;rounded=0;" vertex="1" parent="1">
          <mxGeometry x="180" y="560" width="60" height="30" as="geometry" />
        </mxCell>
        <mxCell id="IatQDoGB5REz5REVIrck-42" value="&lt;font color=&quot;#7ea6e0&quot;&gt;extracted documents&lt;/font&gt;" style="text;html=1;align=center;verticalAlign=middle;whiteSpace=wrap;rounded=0;" vertex="1" parent="1">
          <mxGeometry x="380" y="560" width="60" height="30" as="geometry" />
        </mxCell>
        <mxCell id="IatQDoGB5REz5REVIrck-43" value="&lt;font color=&quot;#7ea6e0&quot;&gt;embeddings&lt;/font&gt;" style="text;html=1;align=center;verticalAlign=middle;whiteSpace=wrap;rounded=0;" vertex="1" parent="1">
          <mxGeometry x="385" y="160" width="60" height="30" as="geometry" />
        </mxCell>
        <mxCell id="IatQDoGB5REz5REVIrck-44" value="&lt;font color=&quot;#7ea6e0&quot;&gt;vector db&lt;/font&gt;" style="text;html=1;align=center;verticalAlign=middle;whiteSpace=wrap;rounded=0;" vertex="1" parent="1">
          <mxGeometry x="380" y="360" width="60" height="30" as="geometry" />
        </mxCell>
        <mxCell id="IatQDoGB5REz5REVIrck-45" value="&lt;font color=&quot;#7ea6e0&quot;&gt;prompt and query docs&lt;/font&gt;" style="text;html=1;align=center;verticalAlign=middle;whiteSpace=wrap;rounded=0;" vertex="1" parent="1">
          <mxGeometry x="580" y="360" width="80" height="30" as="geometry" />
        </mxCell>
        <mxCell id="IatQDoGB5REz5REVIrck-46" value="&lt;font color=&quot;#7ea6e0&quot;&gt;LLM&lt;/font&gt;" style="text;html=1;align=center;verticalAlign=middle;whiteSpace=wrap;rounded=0;" vertex="1" parent="1">
          <mxGeometry x="780" y="360" width="60" height="30" as="geometry" />
        </mxCell>
        <mxCell id="IatQDoGB5REz5REVIrck-47" value="&lt;font color=&quot;#7ea6e0&quot;&gt;answer&lt;/font&gt;" style="text;html=1;align=center;verticalAlign=middle;whiteSpace=wrap;rounded=0;" vertex="1" parent="1">
          <mxGeometry x="980" y="360" width="60" height="30" as="geometry" />
        </mxCell>
      </root>
    </mxGraphModel>
  </diagram>
</mxfile>
